dummy_motion.mot																				
nRows=31																				
nColumns=21																				
name dummy_motion.mot																				
datacolumns 21																				
datarows 31																				
range 12.51 12.81																				
endheader																				
time	pelvis_tilt	pelvis_tx	pelvis_ty	hip_flexion_r	hip_adduction_r	hip_rotation_r	knee_angle_r	ankle_angle_r	hip_flexion_l	hip_adduction_l	hip_rotation_l	knee_angle_l	ankle_angle_l	lumbar_extension	lumbar_bending	lumbar_rotation	subtalar_angle_r	subtalar_angle_l	mtp_angle_r	mtp_angle_l
12.51	0	0	0	71.90642089	20.49898247	-8.51491948	-38.35199288	12.58099164	71.90642089	20.49898247	-8.51491948	-38.35199288	12.58099164	57.40350816	30.74847377	-12.77237925	-19.26478292	-19.26478292	42.78788767	42.78788767
12.52	0	0	0	29.72737293	-8.599465656	-18.56305703	3.553742512	6.989401715	29.72737293	-8.599465656	-18.56305703	3.553742512	6.989401715	51.09726114	-12.89919851	-27.8445856	3.929690956	3.929690956	26.36603365	26.36603365
12.53	0	0	0	-25.8381504	21.08705477	4.463252099	-22.01058362	-28.90359548	-25.8381504	21.08705477	4.463252099	-22.01058362	-28.90359548	-55.13260819	31.63058221	6.694878162	43.62986133	43.62986133	31.01331307	31.01331307
12.54	0	0	0	-13.40070338	23.46398568	-14.2590241	-10.29788825	16.08157336	-13.40070338	23.46398568	-14.2590241	-10.29788825	16.08157336	74.31197259	35.19597859	-21.38853619	19.41102604	19.41102604	3.351311832	3.351311832
12.55	0	0	0	-43.59745152	7.691648756	-6.496156123	-48.8402467	-27.77317624	-43.59745152	7.691648756	-6.496156123	-48.8402467	-27.77317624	33.06418957	11.53747316	-9.744234205	30.50726376	30.50726376	25.24090244	25.24090244
12.56	0	0	0	-32.57390226	-6.049420821	-10.73748611	-45.29065202	-38.76740653	-32.57390226	-6.049420821	-10.73748611	-45.29065202	-38.76740653	69.91083168	-9.074131251	-16.1062292	-6.006549509	-6.006549509	-6.435975714	-6.435975714
12.57	0	0	0	79.04803749	-14.94112065	-13.79141039	-36.73222595	-26.76557787	79.04803749	-14.94112065	-13.79141039	-36.73222595	-26.76557787	38.31654687	-22.41168101	-20.68711563	-2.643775595	-2.643775595	-6.073297978	-6.073297978
12.58	0	0	0	-43.3044156	29.77735726	-29.71816609	-64.43630336	26.11624304	-43.3044156	29.77735726	-29.71816609	-64.43630336	26.11624304	-2.719436128	44.66603598	-44.57724922	5.464206994	5.464206994	13.46381799	13.46381799
12.59	0	0	0	55.42411105	8.236357616	-11.22875424	-18.84324557	-17.5883672	55.42411105	8.236357616	-11.22875424	-18.84324557	-17.5883672	59.9792478	12.35453645	-16.84313139	-20.78176108	-20.78176108	34.16333297	34.16333297
12.6	0	0	0	29.01805935	15.26529036	9.665503532	-42.13066152	-7.006869023	29.01805935	15.26529036	9.665503532	-42.13066152	-7.006869023	-73.66564441	22.89793559	14.49825533	22.41166209	22.41166209	52.43844705	52.43844705
12.61	0	0	0	30.07350894	22.78781927	0.41537826	-28.5530817	-18.66888992	30.07350894	22.78781927	0.41537826	-28.5530817	-18.66888992	-85.411484	34.18172898	0.623067392	0.349899611	0.349899611	37.13776385	37.13776385
12.62	0	0	0	72.67904557	-2.207794716	22.68794114	-60.76416971	11.5207975	72.67904557	-2.207794716	22.68794114	-60.76416971	11.5207975	-29.56898331	-3.311692081	34.03191178	13.21286996	13.21286996	37.96869283	37.96869283
12.63	0	0	0	-36.98295589	-13.52942006	-25.43344531	-76.82115957	-36.54912925	-36.98295589	-13.52942006	-25.43344531	-76.82115957	-36.54912925	-2.353927265	-20.29413012	-38.15016804	-17.30289762	-17.30289762	38.70213552	38.70213552
12.64	0	0	0	-9.799539541	-1.557846907	27.86360472	-44.82057129	-33.602574	-9.799539541	-1.557846907	27.86360472	-44.82057129	-33.602574	-49.43469119	-2.336770365	41.79540717	-32.51478275	-32.51478275	45.98820032	45.98820032
12.65	0	0	0	86.61187922	-28.2044083	-22.02526936	-55.56636832	-36.36723278	86.61187922	-28.2044083	-22.02526936	-55.56636832	-36.36723278	9.847583928	-42.30661254	-33.03790411	-2.198435958	-2.198435958	36.2423617	36.2423617
12.66	0	0	0	69.97153891	-16.28734918	5.816796238	-15.1292243	2.782760929	69.97153891	-16.28734918	5.816796238	-15.1292243	2.782760929	32.60671076	-24.43102382	8.725194375	-12.37866473	-12.37866473	26.39556167	26.39556167
12.67	0	0	0	-46.91959206	2.421649707	-7.280943385	-15.87189702	36.32078114	-46.91959206	2.421649707	-7.280943385	-15.87189702	36.32078114	60.28977764	3.632474568	-10.9214151	25.93020856	25.93020856	13.22154876	13.22154876
12.68	0	0	0	-40.39109503	-6.026427827	-6.112239661	-26.49133965	12.12779448	-40.39109503	-6.026427827	-6.112239661	-26.49133965	12.12779448	71.25710653	-9.039641759	-9.16835951	25.22662388	25.22662388	55.3920899	55.3920899
12.69	0	0	0	46.26629196	15.32766535	17.29528912	-77.31713333	-23.74120906	46.26629196	15.32766535	17.29528912	-77.31713333	-23.74120906	-11.23237472	22.99149808	25.94293373	15.16609928	15.16609928	7.25338637	7.25338637
12.7	0	0	0	-23.29907321	19.91739226	2.299779535	-87.95219072	30.81500042	-23.29907321	19.91739226	2.299779535	-87.95219072	30.81500042	-18.06204804	29.87608845	3.44966931	-32.98465263	-32.98465263	25.78444598	25.78444598
12.71	0	0	0	7.033472416	3.599063791	-2.796179903	-36.81513294	-4.675639454	7.033472416	3.599063791	-2.796179903	-36.81513294	-4.675639454	-10.77840828	5.398595697	-4.194269862	-43.05997015	-43.05997015	41.82225205	41.82225205
12.72	0	0	0	-31.37829348	3.941945577	-29.1462051	-61.42219328	28.42741278	-31.37829348	3.941945577	-29.1462051	-61.42219328	28.42741278	-34.2672557	5.912918377	-43.71930774	5.385663529	5.385663529	7.791797308	7.791797308
12.73	0	0	0	84.36127204	5.907962118	-10.90519439	-0.756077182	29.74695744	84.36127204	5.907962118	-10.90519439	-0.756077182	29.74695744	-9.548393053	8.861943195	-16.35779162	-17.92628837	-17.92628837	49.1909331	49.1909331
12.74	0	0	0	-66.18488571	3.957326141	-13.6191711	3.185845424	19.80034195	-66.18488571	3.957326141	-13.6191711	3.185845424	19.80034195	83.59022236	5.935989224	-20.4287567	39.54687425	39.54687425	27.67080954	27.67080954
12.75	0	0	0	-33.84712577	-1.335054282	-5.885106956	-62.77106306	-20.44414569	-33.84712577	-1.335054282	-5.885106956	-62.77106306	-20.44414569	-6.777318192	-2.002581427	-8.827660453	43.28132724	43.28132724	53.70952938	53.70952938
12.76	0	0	0	80.1670395	-9.551058881	-16.20054392	-13.92207274	-2.031967219	80.1670395	-9.551058881	-16.20054392	-13.92207274	-2.031967219	-0.721437772	-14.32658835	-24.30081593	-19.204165	-19.204165	14.54944871	14.54944871
12.77	0	0	0	6.994085812	18.70260686	11.00604648	-4.869421614	-3.006537755	6.994085812	18.70260686	11.00604648	-4.869421614	-3.006537755	-86.12281947	28.05391034	16.50906975	27.07382583	27.07382583	55.47274179	55.47274179
12.78	0	0	0	49.12190988	17.88461969	-8.130074073	-33.2349752	-48.94025816	49.12190988	17.88461969	-8.130074073	-33.2349752	-48.94025816	-55.38867645	26.82692959	-12.19511113	35.65002163	35.65002163	54.94036214	54.94036214
12.79	0	0	0	-67.3578899	-13.065341	-18.44020495	-6.018410106	-38.05316891	-67.3578899	-13.065341	-18.44020495	-6.018410106	-38.05316891	71.66416704	-19.59801155	-27.66030748	8.777391914	8.777391914	31.13902523	31.13902523
12.8	0	0	0	31.77546552	-17.26783261	-22.76568128	-0.345503586	-28.87540114	31.77546552	-17.26783261	-22.76568128	-0.345503586	-28.87540114	-19.92739982	-25.90174896	-34.14852198	34.56150622	34.56150622	-2.876650593	-2.876650593
12.81	0	0	0	4.599974904	-14.97001199	9.103979429	-37.8299817	7.623892583	4.599974904	-14.97001199	9.103979429	-37.8299817	7.623892583	-71.63169241	-22.45501803	13.65596917	39.93583871	39.93583871	15.68131578	15.68131578
